<svg clip-rule="evenodd" fill-rule="evenodd" stroke-linejoin="round" stroke-miterlimit="2" viewBox="0 0 64 64" xmlns="http://www.w3.org/2000/svg"><path d="m32 0c17.673 0 32 14.327 32 32s-14.327 32-32 32-32-14.327-32-32 14.327-32 32-32zm0 1.208c-17.006 0-30.792 13.786-30.792 30.792s13.786 30.792 30.792 30.792 30.792-13.786 30.792-30.792-13.786-30.792-30.792-30.792zm10.59 38.858c.47-.014.863.352.882.822v1.642h-24.586v-1.642c.019-.47.412-.836.882-.822zm-17.147-12.292v9.829h1.642v-9.83h3.273v9.83h1.642v-9.83h3.272v9.83h1.643v-9.83h3.272v9.83h.76c.469-.014.863.352.882.821v.821h-21.3v-.809c.02-.468.412-.833.88-.82h.762v-9.842zm5.736-8.188 12.293 4.915v1.642h-1.63c-.019.469-.412.836-.882.822h-19.55c-.47.014-.863-.353-.882-.822h-1.642v-1.642z" fill="#004185"/></svg>