<?xml version="1.0" encoding="UTF-8" standalone="no"?><!DOCTYPE svg PUBLIC "-//W3C//DTD SVG 1.1//EN" "http://www.w3.org/Graphics/SVG/1.1/DTD/svg11.dtd"><svg width="100%" height="100%" viewBox="0 0 64 64" version="1.1" xmlns="http://www.w3.org/2000/svg" xmlns:xlink="http://www.w3.org/1999/xlink" xml:space="preserve" xmlns:serif="http://www.serif.com/" style="fill-rule:evenodd;clip-rule:evenodd;stroke-linejoin:round;stroke-miterlimit:2;"><path id="Shape-5" serif:id="Shape 5" d="M32,0c17.673,0 32,14.327 32,32c0,17.673 -14.327,32 -32,32c-17.673,0 -32,-14.327 -32,-32c0,-17.673 14.327,-32 32,-32Zm0,1.208c-17.006,0 -30.792,13.786 -30.792,30.792c0,17.006 13.786,30.792 30.792,30.792c17.006,0 30.792,-13.786 30.792,-30.792c0,-17.006 -13.786,-30.792 -30.792,-30.792Zm10.59,38.858c0.47,-0.014 0.863,0.352 0.882,0.822l0,1.642l-24.586,0l0,-1.642c0.019,-0.47 0.412,-0.836 0.882,-0.822l22.822,0Zm-17.147,-12.292l0,9.829l1.642,0l0,-9.83l3.273,0l0,9.83l1.642,0l0,-9.83l3.272,0l0,9.83l1.643,0l0,-9.83l3.272,0l0,9.83l0.76,0c0.469,-0.014 0.863,0.352 0.882,0.821l0,0.821l-21.3,0l0,-0.809c0.02,-0.468 0.412,-0.833 0.88,-0.82l0.762,0l0,-9.842l3.272,0Zm5.736,-8.188l12.293,4.915l0,1.642l-1.63,0c-0.019,0.469 -0.412,0.836 -0.882,0.822l-19.55,0c-0.47,0.014 -0.863,-0.353 -0.882,-0.822l-1.642,0l0,-1.642l12.293,-4.915Z" style="fill:#004185;"/></svg>