<svg xmlns="http://www.w3.org/2000/svg" width="58" height="13.969"><path d="M57.983 5.307a.371.371 0 0 0-.343-.267l-4.737-.1L51.348.259a.363.363 0 0 0-.7 0L49.093 4.94l-4.737.1a.371.371 0 0 0-.342.267.4.4 0 0 0 .128.427l3.775 2.994-1.372 4.742a.4.4 0 0 0 .135.424.355.355 0 0 0 .427.005l3.889-2.831 3.889 2.831a.354.354 0 0 0 .427-.005.4.4 0 0 0 .135-.424l-1.372-4.742 3.775-2.994a.4.4 0 0 0 .133-.427zm-22 0a.371.371 0 0 0-.343-.267l-4.737-.1L29.348.259a.363.363 0 0 0-.7 0L27.093 4.94l-4.737.1a.371.371 0 0 0-.343.267.4.4 0 0 0 .128.427l3.775 2.994-1.372 4.742a.4.4 0 0 0 .135.424.355.355 0 0 0 .427.005l3.889-2.831 3.889 2.831a.354.354 0 0 0 .427-.005.4.4 0 0 0 .135-.424l-1.372-4.742 3.775-2.994a.4.4 0 0 0 .134-.427zm-22 0a.371.371 0 0 0-.342-.267l-4.737-.1L7.349.259a.363.363 0 0 0-.7 0L5.094 4.94l-4.737.1a.371.371 0 0 0-.343.267.4.4 0 0 0 .128.427l3.775 2.994-1.372 4.742a.4.4 0 0 0 .135.424.355.355 0 0 0 .427.005l3.889-2.831 3.889 2.831a.354.354 0 0 0 .427-.005.4.4 0 0 0 .135-.424l-1.372-4.742 3.775-2.994a.4.4 0 0 0 .133-.427z" fill="#981f33"/></svg>