<svg clip-rule="evenodd" fill-rule="evenodd" stroke-linejoin="round" stroke-miterlimit="2" viewBox="0 0 32 32" xmlns="http://www.w3.org/2000/svg"><path d="m32 16c0-8.836-7.165-16.001-16-16.001s-16 7.165-16 16.001c0 8.835 7.165 16 16 16 .094 0 .187-.002.281-.004v-12.455h-3.437v-4.007h3.437v-2.947c0-3.419 2.087-5.28 5.137-5.28 1.461 0 2.716.109 3.082.157v3.573h-2.103c-1.659 0-1.98.789-1.98 1.946v2.551h3.967l-.517 4.007h-3.45v11.841c6.687-1.917 11.583-8.079 11.583-15.382z" fill="#fff" fill-rule="nonzero"/></svg>