<?xml version="1.0" encoding="UTF-8" standalone="no"?><!DOCTYPE svg PUBLIC "-//W3C//DTD SVG 1.1//EN" "http://www.w3.org/Graphics/SVG/1.1/DTD/svg11.dtd"><svg width="100%" height="100%" viewBox="0 0 32 32" version="1.1" xmlns="http://www.w3.org/2000/svg" xmlns:xlink="http://www.w3.org/1999/xlink" xml:space="preserve" xmlns:serif="http://www.serif.com/" style="fill-rule:evenodd;clip-rule:evenodd;stroke-linejoin:round;stroke-miterlimit:2;"><path id="Shape-1" serif:id="Shape 1" d="M32,16c0,-8.836 -7.165,-16.001 -16,-16.001c-8.835,0 -16,7.165 -16,16.001c0,8.835 7.165,16 16,16c0.094,0 0.187,-0.002 0.281,-0.004l0,-12.455l-3.437,0l0,-4.007l3.437,0l0,-2.947c0,-3.419 2.087,-5.28 5.137,-5.28c1.461,0 2.716,0.109 3.082,0.157l0,3.573l-2.103,0c-1.659,0 -1.98,0.789 -1.98,1.946l0,2.551l3.967,0l-0.517,4.007l-3.45,0l0,11.841c6.687,-1.917 11.583,-8.079 11.583,-15.382Z" style="fill:#fff;fill-rule:nonzero;"/></svg>