<?xml version="1.0" encoding="UTF-8" standalone="no"?><!DOCTYPE svg PUBLIC "-//W3C//DTD SVG 1.1//EN" "http://www.w3.org/Graphics/SVG/1.1/DTD/svg11.dtd"><svg width="100%" height="100%" viewBox="0 0 24 24" version="1.1" xmlns="http://www.w3.org/2000/svg" xmlns:xlink="http://www.w3.org/1999/xlink" xml:space="preserve" xmlns:serif="http://www.serif.com/" style="fill-rule:evenodd;clip-rule:evenodd;stroke-linejoin:round;stroke-miterlimit:2;"><path id="icon" d="M24,12c0,-6.617 -5.383,-12 -12,-12c-6.617,0 -12,5.383 -12,12c0,2.156 0.574,4.256 1.664,6.1l-1.62,5.856l5.856,-1.62c1.844,1.09 3.944,1.664 6.1,1.664c6.617,0 12,-5.383 12,-12Zm-13.841,-2.793l-1.842,0c0,-2.031 1.652,-3.683 3.683,-3.683c2.031,0 3.683,1.652 3.683,3.683c0,1.031 -0.437,2.021 -1.198,2.718l-1.564,1.432l0,1.436l-1.842,0l0,-2.247l2.163,-1.979c0.387,-0.354 0.599,-0.837 0.599,-1.36c0,-1.016 -0.826,-1.841 -1.841,-1.841c-1.015,0 -1.841,0.825 -1.841,1.841Zm0.92,7.428l1.842,0l0,1.84l-1.842,0l0,-1.84Z" style="fill:#fff;fill-rule:nonzero;"/></svg>