<svg viewBox="0 0 24 24" xmlns="http://www.w3.org/2000/svg" fill-rule="evenodd" clip-rule="evenodd" stroke-linejoin="round" stroke-miterlimit="2"><path d="M24 12c0-6.617-5.383-12-12-12S0 5.383 0 12c0 2.156.574 4.256 1.664 6.1l-1.62 5.856 5.856-1.62A11.967 11.967 0 0 0 12 24c6.617 0 12-5.383 12-12zM10.159 9.207H8.317A3.687 3.687 0 0 1 12 5.524a3.687 3.687 0 0 1 3.683 3.683 3.695 3.695 0 0 1-1.198 2.718l-1.564 1.432v1.436h-1.842v-2.247l2.163-1.979A1.843 1.843 0 0 0 12 7.366a1.843 1.843 0 0 0-1.841 1.841zm.92 7.428h1.842v1.84h-1.842v-1.84z" fill="#fff" fill-rule="nonzero"/></svg>