<?xml version="1.0" encoding="UTF-8" standalone="no"?><!DOCTYPE svg PUBLIC "-//W3C//DTD SVG 1.1//EN" "http://www.w3.org/Graphics/SVG/1.1/DTD/svg11.dtd"><svg width="100%" height="100%" viewBox="0 0 32 32" version="1.1" xmlns="http://www.w3.org/2000/svg" xmlns:xlink="http://www.w3.org/1999/xlink" xml:space="preserve" xmlns:serif="http://www.serif.com/" style="fill-rule:evenodd;clip-rule:evenodd;stroke-linejoin:round;stroke-miterlimit:2;"><path id="Shape-3" serif:id="Shape 3" d="M16,0c-8.835,0 -16,7.165 -16,16c0,8.835 7.165,16 16,16c8.835,0 16,-7.165 16,-16c0,-8.835 -7.165,-16 -16,-16Zm9.132,19.788c-0.044,0.978 -0.2,1.646 -0.427,2.23c-0.477,1.234 -1.453,2.21 -2.687,2.687c-0.584,0.227 -1.252,0.382 -2.23,0.427c-0.98,0.045 -1.293,0.055 -3.788,0.055c-2.495,0 -2.808,-0.01 -3.788,-0.055c-0.978,-0.045 -1.646,-0.2 -2.23,-0.427c-0.613,-0.231 -1.168,-0.592 -1.627,-1.06c-0.468,-0.459 -0.829,-1.014 -1.06,-1.627c-0.227,-0.584 -0.382,-1.252 -0.427,-2.23c-0.045,-0.98 -0.056,-1.293 -0.056,-3.788c0,-2.495 0.011,-2.808 0.056,-3.788c0.044,-0.978 0.2,-1.646 0.427,-2.23c0.23,-0.613 0.592,-1.168 1.06,-1.627c0.458,-0.468 1.014,-0.829 1.627,-1.06c0.584,-0.227 1.252,-0.382 2.23,-0.427c0.98,-0.045 1.293,-0.055 3.788,-0.055c2.495,0 2.808,0.01 3.788,0.055c0.978,0.045 1.646,0.2 2.23,0.427c0.613,0.23 1.168,0.592 1.628,1.06c0.467,0.459 0.829,1.014 1.059,1.627c0.227,0.584 0.383,1.252 0.427,2.23c0.045,0.98 0.056,1.293 0.056,3.788c0,2.495 -0.011,2.808 -0.056,3.788Zm-1.97,-9.206c-0.147,-0.399 -0.382,-0.761 -0.687,-1.057c-0.297,-0.305 -0.657,-0.54 -1.057,-0.687c-0.323,-0.126 -0.81,-0.275 -1.705,-0.316c-0.969,-0.045 -1.26,-0.054 -3.713,-0.054c-2.453,0 -2.744,0.009 -3.713,0.053c-0.895,0.042 -1.382,0.191 -1.705,0.317c-0.4,0.147 -0.761,0.382 -1.057,0.687c-0.305,0.296 -0.54,0.657 -0.687,1.057c-0.126,0.323 -0.276,0.81 -0.317,1.705c-0.044,0.969 -0.053,1.26 -0.053,3.713c0,2.453 0.009,2.744 0.053,3.713c0.041,0.895 0.191,1.382 0.317,1.706c0.147,0.399 0.382,0.76 0.687,1.056c0.296,0.305 0.657,0.54 1.056,0.687c0.324,0.126 0.811,0.276 1.706,0.317c0.969,0.044 1.259,0.053 3.713,0.053c2.453,0 2.744,-0.009 3.712,-0.053c0.896,-0.041 1.383,-0.191 1.706,-0.317c0.802,-0.309 1.435,-0.942 1.744,-1.743c0.126,-0.324 0.276,-0.811 0.316,-1.706c0.045,-0.969 0.054,-1.26 0.054,-3.713c0,-2.453 -0.009,-2.744 -0.054,-3.713c-0.04,-0.895 -0.19,-1.382 -0.316,-1.705Zm-7.162,10.136c-2.606,0 -4.718,-2.112 -4.718,-4.718c0,-2.606 2.112,-4.718 4.718,-4.718c2.605,0 4.718,2.112 4.718,4.718c0,2.606 -2.113,4.718 -4.718,4.718Zm3.062,-4.718c0,1.691 -1.371,3.063 -3.062,3.063c-1.691,0 -3.063,-1.372 -3.063,-3.063c0,-1.691 1.372,-3.063 3.063,-3.063c1.691,0 3.062,1.372 3.062,3.063Zm1.842,-3.802c-0.609,0 -1.102,-0.493 -1.102,-1.102c0,-0.609 0.493,-1.103 1.102,-1.103c0.609,0 1.103,0.494 1.103,1.103c0,0.609 -0.494,1.102 -1.103,1.102Z" style="fill:#fff;"/></svg>