<svg viewBox="0 0 32 32" xmlns="http://www.w3.org/2000/svg" xmlns:serif="http://www.serif.com/" fill-rule="evenodd" clip-rule="evenodd" stroke-linejoin="round" stroke-miterlimit="2"><path serif:id="Shape 3" d="M16 0C7.165 0 0 7.165 0 16s7.165 16 16 16 16-7.165 16-16S24.835 0 16 0zm9.132 19.788c-.044.978-.2 1.646-.427 2.23a4.697 4.697 0 0 1-2.687 2.687c-.584.227-1.252.382-2.23.427-.98.045-1.293.055-3.788.055s-2.808-.01-3.788-.055c-.978-.045-1.646-.2-2.23-.427a4.5 4.5 0 0 1-1.627-1.06 4.5 4.5 0 0 1-1.06-1.627c-.227-.584-.382-1.252-.427-2.23-.045-.98-.056-1.293-.056-3.788s.011-2.808.056-3.788c.044-.978.2-1.646.427-2.23a4.487 4.487 0 0 1 1.06-1.627 4.492 4.492 0 0 1 1.627-1.06c.584-.227 1.252-.382 2.23-.427.98-.045 1.293-.055 3.788-.055s2.808.01 3.788.055c.978.045 1.646.2 2.23.427a4.5 4.5 0 0 1 1.628 1.06 4.498 4.498 0 0 1 1.059 1.627c.227.584.383 1.252.427 2.23.045.98.056 1.293.056 3.788s-.011 2.808-.056 3.788zm-1.97-9.206a2.844 2.844 0 0 0-.687-1.057 2.844 2.844 0 0 0-1.057-.687c-.323-.126-.81-.275-1.705-.316-.969-.045-1.26-.054-3.713-.054-2.453 0-2.744.009-3.713.053-.895.042-1.382.191-1.705.317-.4.147-.761.382-1.057.687-.305.296-.54.657-.687 1.057-.126.323-.276.81-.317 1.705-.044.969-.053 1.26-.053 3.713 0 2.453.009 2.744.053 3.713.041.895.191 1.382.317 1.706.147.399.382.76.687 1.056.296.305.657.54 1.056.687.324.126.811.276 1.706.317.969.044 1.259.053 3.713.053 2.453 0 2.744-.009 3.712-.053.896-.041 1.383-.191 1.706-.317a3.04 3.04 0 0 0 1.744-1.743c.126-.324.276-.811.316-1.706.045-.969.054-1.26.054-3.713 0-2.453-.009-2.744-.054-3.713-.04-.895-.19-1.382-.316-1.705zM16 20.718a4.718 4.718 0 1 1 0-9.435 4.718 4.718 0 0 1 0 9.435zM19.062 16a3.063 3.063 0 1 1-6.126 0 3.063 3.063 0 0 1 6.126 0zm1.842-3.802a1.102 1.102 0 1 1-.001-2.203 1.102 1.102 0 0 1 .001 2.203z" fill="#fff"/></svg>