<?xml version="1.0" encoding="UTF-8" standalone="no"?><!DOCTYPE svg PUBLIC "-//W3C//DTD SVG 1.1//EN" "http://www.w3.org/Graphics/SVG/1.1/DTD/svg11.dtd"><svg width="100%" height="100%" viewBox="0 0 64 64" version="1.1" xmlns="http://www.w3.org/2000/svg" xmlns:xlink="http://www.w3.org/1999/xlink" xml:space="preserve" xmlns:serif="http://www.serif.com/" style="fill-rule:evenodd;clip-rule:evenodd;stroke-linejoin:round;stroke-miterlimit:2;"><path id="Shape-6" serif:id="Shape 6" d="M32,0c17.673,0 32,14.327 32,32c0,17.673 -14.327,32 -32,32c-17.673,0 -32,-14.327 -32,-32c0,-17.673 14.327,-32 32,-32Zm0,1.208c-17.006,0 -30.792,13.786 -30.792,30.792c0,17.006 13.786,30.792 30.792,30.792c17.006,0 30.792,-13.786 30.792,-30.792c0,-17.006 -13.786,-30.792 -30.792,-30.792Zm0,18.886c4.001,0 7.245,3.244 7.245,7.245l0,3.103l0.52,0c0.86,0 1.557,0.698 1.557,1.558l0,9.322c0,0.86 -0.697,1.558 -1.557,1.558l-15.53,0c-0.86,0 -1.557,-0.697 -1.557,-1.558l0,-9.322c0,-0.86 0.697,-1.558 1.557,-1.558l0.52,0l0,-3.102c-0.001,-4.001 3.243,-7.245 7.244,-7.246l0.001,0Zm0,3.103c-2.288,0 -4.142,1.854 -4.142,4.142l0,3.103l8.284,0l0,-3.102c0.001,-2.288 -1.853,-4.142 -4.141,-4.143l-0.001,0Z" style="fill:#2d8700;"/></svg>