<svg clip-rule="evenodd" fill-rule="evenodd" stroke-linejoin="round" stroke-miterlimit="2" viewBox="0 0 64 64" xmlns="http://www.w3.org/2000/svg"><path d="m32 0c17.673 0 32 14.327 32 32s-14.327 32-32 32-32-14.327-32-32 14.327-32 32-32zm0 1.208c-17.006 0-30.792 13.786-30.792 30.792s13.786 30.792 30.792 30.792 30.792-13.786 30.792-30.792-13.786-30.792-30.792-30.792zm0 18.886c4.001 0 7.245 3.244 7.245 7.245v3.103h.52c.86 0 1.557.698 1.557 1.558v9.322c0 .86-.697 1.558-1.557 1.558h-15.53c-.86 0-1.557-.697-1.557-1.558v-9.322c0-.86.697-1.558 1.557-1.558h.52v-3.102c-.001-4.001 3.243-7.245 7.244-7.246zm0 3.103c-2.288 0-4.142 1.854-4.142 4.142v3.103h8.284v-3.102c.001-2.288-1.853-4.142-4.141-4.143z" fill="#2d8700"/></svg>