<svg viewBox="0 0 24 16" xmlns="http://www.w3.org/2000/svg" fill-rule="evenodd" clip-rule="evenodd" stroke-linejoin="round" stroke-miterlimit="2"><path d="M15.551 8.945l-2.01 1.912c-.815.775-2.249.792-3.082 0l-2.01-1.912-7.22 6.867c.269.118.565.188.88.188h19.782c.315 0 .611-.07.879-.188l-7.219-6.867zM.224 1.121A1.89 1.89 0 0 0 0 2v12c0 .317.085.613.224.879L7.456 8 .224 1.121zm23.552-.001L16.544 8l7.232 6.879A1.89 1.89 0 0 0 24 14V2c0-.317-.085-.613-.224-.88zM21.891 0H2.109c-.315 0-.611.07-.88.188l7.715 7.339.002.001v.001l2.509 2.387c.266.252.824.252 1.09 0l2.508-2.387.001-.001.002-.001L22.77.188A2.174 2.174 0 0 0 21.891 0z" fill="#fff"/></svg>