<?xml version="1.0" encoding="UTF-8" standalone="no"?><!DOCTYPE svg PUBLIC "-//W3C//DTD SVG 1.1//EN" "http://www.w3.org/Graphics/SVG/1.1/DTD/svg11.dtd"><svg width="100%" height="100%" viewBox="0 0 24 16" version="1.1" xmlns="http://www.w3.org/2000/svg" xmlns:xlink="http://www.w3.org/1999/xlink" xml:space="preserve" xmlns:serif="http://www.serif.com/" style="fill-rule:evenodd;clip-rule:evenodd;stroke-linejoin:round;stroke-miterlimit:2;"><path id="icon" d="M15.551,8.945l-2.01,1.912c-0.815,0.775 -2.249,0.792 -3.082,0l-2.01,-1.912l-7.22,6.867c0.269,0.118 0.565,0.188 0.88,0.188l19.782,0c0.315,0 0.611,-0.07 0.879,-0.188l-7.219,-6.867Zm-15.327,-7.824c-0.139,0.266 -0.224,0.562 -0.224,0.879l0,12c0,0.317 0.085,0.613 0.224,0.879l7.232,-6.879l-7.232,-6.879Zm23.552,-0.001l-7.232,6.88l7.232,6.879c0.139,-0.266 0.224,-0.562 0.224,-0.879l0,-12c0,-0.317 -0.085,-0.613 -0.224,-0.88Zm-1.885,-1.12l-19.782,0c-0.315,0 -0.611,0.07 -0.88,0.188l7.715,7.339c0,0 0.001,0 0.002,0.001c0,0 0,0.001 0,0.001l2.509,2.387c0.266,0.252 0.824,0.252 1.09,0l2.508,-2.387c0,0 0.001,-0.001 0.001,-0.001c0,0 0.002,-0.001 0.002,-0.001l7.714,-7.339c-0.268,-0.118 -0.564,-0.188 -0.879,-0.188Z" style="fill:#fff;"/></svg>