<?xml version="1.0" encoding="UTF-8" standalone="no"?><!DOCTYPE svg PUBLIC "-//W3C//DTD SVG 1.1//EN" "http://www.w3.org/Graphics/SVG/1.1/DTD/svg11.dtd"><svg width="100%" height="100%" viewBox="0 0 24 24" version="1.1" xmlns="http://www.w3.org/2000/svg" xmlns:xlink="http://www.w3.org/1999/xlink" xml:space="preserve" xmlns:serif="http://www.serif.com/" style="fill-rule:evenodd;clip-rule:evenodd;stroke-linejoin:round;stroke-miterlimit:2;"><path id="icon" d="M20.483,3.514c-4.686,-4.686 -12.284,-4.685 -16.97,0.002c-4.685,4.687 -4.684,12.285 0.003,16.97c4.687,4.686 12.285,4.685 16.97,-0.002c2.25,-2.251 3.514,-5.304 3.513,-8.486c0,-3.183 -1.265,-6.234 -3.516,-8.484Zm-2.31,13.202c0,0 -0.001,0.001 -0.001,0.001l0,-0.003l-0.608,0.603c-0.787,0.797 -1.932,1.124 -3.02,0.864c-1.097,-0.293 -2.139,-0.76 -3.088,-1.384c-0.882,-0.563 -1.699,-1.222 -2.436,-1.964c-0.679,-0.673 -1.288,-1.413 -1.82,-2.207c-0.582,-0.856 -1.042,-1.787 -1.368,-2.768c-0.374,-1.153 -0.064,-2.418 0.8,-3.269l0.712,-0.712c0.198,-0.198 0.519,-0.199 0.718,-0.001c0.001,0 0.001,0.001 0.002,0.001l2.248,2.249c0.199,0.198 0.199,0.519 0.001,0.718c0,0 -0.001,0.001 -0.001,0.002l-1.32,1.32c-0.379,0.374 -0.427,0.97 -0.112,1.4c0.477,0.655 1.006,1.271 1.58,1.844c0.64,0.642 1.336,1.227 2.08,1.748c0.429,0.299 1.012,0.249 1.384,-0.12l1.276,-1.297c0.197,-0.198 0.519,-0.199 0.718,-0.001c0,0 0.001,0.001 0.001,0.001l2.252,2.256c0.199,0.198 0.2,0.52 0.002,0.719Z" style="fill:#fff;fill-rule:nonzero;"/></svg>