<svg viewBox="0 0 24 24" xmlns="http://www.w3.org/2000/svg" fill-rule="evenodd" clip-rule="evenodd" stroke-linejoin="round" stroke-miterlimit="2"><path d="M20.483 3.514c-4.686-4.686-12.284-4.685-16.97.002-4.685 4.687-4.684 12.285.003 16.97 4.687 4.686 12.285 4.685 16.97-.002a12 12 0 0 0-.003-16.97zm-2.31 13.202l-.001.001v-.003l-.608.603a3.199 3.199 0 0 1-3.02.864 10.595 10.595 0 0 1-3.088-1.384 14.211 14.211 0 0 1-2.436-1.964 14.363 14.363 0 0 1-1.82-2.207 11.208 11.208 0 0 1-1.368-2.768 3.202 3.202 0 0 1 .8-3.269l.712-.712a.508.508 0 0 1 .718-.001l.002.001 2.248 2.249a.507.507 0 0 1 .001.718l-.001.002-1.32 1.32c-.379.374-.427.97-.112 1.4a15.5 15.5 0 0 0 1.58 1.844c.64.642 1.336 1.227 2.08 1.748a1.085 1.085 0 0 0 1.384-.12l1.276-1.297a.508.508 0 0 1 .718-.001l.001.001 2.252 2.256c.199.198.2.52.002.719z" fill="#fff" fill-rule="nonzero"/></svg>