<svg viewBox="0 0 32 32" xmlns="http://www.w3.org/2000/svg" xmlns:serif="http://www.serif.com/" fill-rule="evenodd" clip-rule="evenodd" stroke-linejoin="round" stroke-miterlimit="2"><path serif:id="Shape 4" d="M29.768 0H2.232A2.234 2.234 0 0 0 0 2.232v27.536A2.234 2.234 0 0 0 2.232 32h27.536A2.234 2.234 0 0 0 32 29.768V2.232A2.234 2.234 0 0 0 29.768 0zM8.423 27.18a2.825 2.825 0 1 1-.001-5.651 2.825 2.825 0 0 1 .001 5.651zm10.683-1.677c0 .598-.485 1.083-1.083 1.083h-2.297a1.083 1.083 0 0 1-1.083-1.083v-1.148a6.469 6.469 0 0 0-6.462-6.462H7.033a1.084 1.084 0 0 1-1.084-1.084v-2.296c0-.599.485-1.084 1.084-1.084h1.148c6.024 0 10.925 4.901 10.925 10.926v1.148zm6.934 1.083h-2.296a1.083 1.083 0 0 1-1.084-1.083v-1.148c0-7.984-6.495-14.48-14.479-14.48H7.033a1.083 1.083 0 0 1-1.084-1.083V6.495c0-.598.485-1.083 1.084-1.083h1.148c5.06 0 9.817 1.97 13.395 5.548a18.823 18.823 0 0 1 5.548 13.395v1.148c0 .598-.485 1.083-1.084 1.083z" fill="#fff" fill-rule="nonzero"/></svg>