<?xml version="1.0" encoding="UTF-8" standalone="no"?><!DOCTYPE svg PUBLIC "-//W3C//DTD SVG 1.1//EN" "http://www.w3.org/Graphics/SVG/1.1/DTD/svg11.dtd"><svg width="100%" height="100%" viewBox="0 0 32 32" version="1.1" xmlns="http://www.w3.org/2000/svg" xmlns:xlink="http://www.w3.org/1999/xlink" xml:space="preserve" xmlns:serif="http://www.serif.com/" style="fill-rule:evenodd;clip-rule:evenodd;stroke-linejoin:round;stroke-miterlimit:2;"><path id="Shape-4" serif:id="Shape 4" d="M29.768,0l-27.536,0c-1.231,0 -2.232,1.001 -2.232,2.232l0,27.536c0,1.231 1.001,2.232 2.232,2.232l27.536,0c1.231,0 2.232,-1.001 2.232,-2.232l0,-27.536c0,-1.231 -1.001,-2.232 -2.232,-2.232Zm-21.345,27.18c-1.561,0 -2.826,-1.265 -2.826,-2.825c0,-1.561 1.265,-2.826 2.826,-2.826c1.56,0 2.825,1.265 2.825,2.826c0,1.56 -1.265,2.825 -2.825,2.825Zm10.683,-1.677c0,0.598 -0.485,1.083 -1.083,1.083l-2.297,0c-0.598,0 -1.083,-0.485 -1.083,-1.083l0,-1.148c0,-3.564 -2.899,-6.462 -6.462,-6.462l-1.148,0c-0.599,0 -1.084,-0.485 -1.084,-1.084l0,-2.296c0,-0.599 0.485,-1.084 1.084,-1.084l1.148,0c6.024,0 10.925,4.901 10.925,10.926l0,1.148Zm6.934,1.083l-2.296,0c-0.599,0 -1.084,-0.485 -1.084,-1.083l0,-1.148c0,-7.984 -6.495,-14.48 -14.479,-14.48l-1.148,0c-0.599,0 -1.084,-0.485 -1.084,-1.083l0,-2.297c0,-0.598 0.485,-1.083 1.084,-1.083l1.148,0c5.06,0 9.817,1.97 13.395,5.548c3.577,3.578 5.548,8.335 5.548,13.395l0,1.148l0,0c0,0.598 -0.485,1.083 -1.084,1.083Z" style="fill:#fff;fill-rule:nonzero;"/></svg>