<?xml version="1.0" encoding="UTF-8" standalone="no"?><!DOCTYPE svg PUBLIC "-//W3C//DTD SVG 1.1//EN" "http://www.w3.org/Graphics/SVG/1.1/DTD/svg11.dtd"><svg width="100%" height="100%" viewBox="0 0 14 14" version="1.1" xmlns="http://www.w3.org/2000/svg" xmlns:xlink="http://www.w3.org/1999/xlink" xml:space="preserve" xmlns:serif="http://www.serif.com/" style="fill-rule:evenodd;clip-rule:evenodd;stroke-linejoin:round;stroke-miterlimit:2;"><path id="search" d="M6.3,1.4c2.706,0 4.9,2.194 4.9,4.9c0,2.706 -2.194,4.9 -4.9,4.9c-2.706,0 -4.9,-2.194 -4.9,-4.9c0,-2.706 2.194,-4.9 4.9,-4.9Zm7.487,12.387c-0.27,0.27 -0.709,0.27 -0.979,0l-2.572,-2.573c-1.079,0.866 -2.446,1.386 -3.936,1.386c-3.479,0 -6.3,-2.821 -6.3,-6.3c0,-3.479 2.821,-6.3 6.3,-6.3c3.479,0 6.3,2.821 6.3,6.3c0,1.49 -0.52,2.857 -1.385,3.936l2.572,2.572c0.27,0.27 0.27,0.708 0,0.979Z" style="fill:#fff;"/></svg>