<svg viewBox="0 0 34 34" xmlns="http://www.w3.org/2000/svg" xmlns:serif="http://www.serif.com/" fill-rule="evenodd" clip-rule="evenodd" stroke-linejoin="round" stroke-miterlimit="2"><path serif:id="Shape 2" d="M17 .992C8.16.992.991 8.16.991 17S8.16 33.008 17 33.008 33.008 25.84 33.008 17 25.84.992 17 .992zm7.309 12.481c.007.158.011.316.011.475 0 4.855-3.696 10.455-10.455 10.455h.001-.001c-2.075 0-4.006-.609-5.632-1.651.288.034.58.051.877.051a7.368 7.368 0 0 0 4.563-1.573 3.678 3.678 0 0 1-3.432-2.552 3.652 3.652 0 0 0 1.659-.063 3.677 3.677 0 0 1-2.947-3.649 3.657 3.657 0 0 0 1.664.46 3.671 3.671 0 0 1-1.635-3.059c0-.673.182-1.304.497-1.847a10.432 10.432 0 0 0 7.574 3.84 3.675 3.675 0 0 1 6.262-3.351 7.387 7.387 0 0 0 2.333-.892 3.69 3.69 0 0 1-1.616 2.032 7.32 7.32 0 0 0 2.11-.579 7.454 7.454 0 0 1-1.833 1.903z" fill="#fff" fill-rule="nonzero"/></svg>