<?xml version="1.0" encoding="UTF-8" standalone="no"?><!DOCTYPE svg PUBLIC "-//W3C//DTD SVG 1.1//EN" "http://www.w3.org/Graphics/SVG/1.1/DTD/svg11.dtd"><svg width="100%" height="100%" viewBox="0 0 34 34" version="1.1" xmlns="http://www.w3.org/2000/svg" xmlns:xlink="http://www.w3.org/1999/xlink" xml:space="preserve" xmlns:serif="http://www.serif.com/" style="fill-rule:evenodd;clip-rule:evenodd;stroke-linejoin:round;stroke-miterlimit:2;"><path id="Shape-2" serif:id="Shape 2" d="M17,0.992c-8.84,0 -16.009,7.168 -16.009,16.008c0,8.84 7.169,16.008 16.009,16.008c8.84,0 16.008,-7.168 16.008,-16.008c0,-8.84 -7.168,-16.008 -16.008,-16.008Zm7.309,12.481c0.007,0.158 0.011,0.316 0.011,0.475c0,4.855 -3.696,10.455 -10.455,10.455l0.001,0l-0.001,0c-2.075,0 -4.006,-0.609 -5.632,-1.651c0.288,0.034 0.58,0.051 0.877,0.051c1.721,0 3.306,-0.587 4.563,-1.573c-1.608,-0.03 -2.964,-1.092 -3.432,-2.552c0.224,0.043 0.454,0.066 0.69,0.066c0.336,0 0.66,-0.045 0.969,-0.129c-1.681,-0.337 -2.948,-1.823 -2.948,-3.602c0,-0.017 0,-0.032 0.001,-0.047c0.495,0.275 1.061,0.441 1.664,0.46c-0.987,-0.659 -1.635,-1.784 -1.635,-3.059c0,-0.673 0.182,-1.304 0.497,-1.847c1.812,2.224 4.52,3.686 7.574,3.84c-0.063,-0.27 -0.095,-0.55 -0.095,-0.838c0,-2.029 1.645,-3.675 3.675,-3.675c1.057,0 2.011,0.447 2.682,1.162c0.837,-0.166 1.623,-0.471 2.333,-0.892c-0.275,0.857 -0.857,1.577 -1.616,2.032c0.743,-0.089 1.452,-0.286 2.11,-0.579c-0.492,0.737 -1.115,1.385 -1.833,1.903Z" style="fill:#fff;fill-rule:nonzero;"/></svg>