<?xml version="1.0" encoding="UTF-8" standalone="no"?><!DOCTYPE svg PUBLIC "-//W3C//DTD SVG 1.1//EN" "http://www.w3.org/Graphics/SVG/1.1/DTD/svg11.dtd"><svg width="100%" height="100%" viewBox="0 0 20 16" version="1.1" xmlns="http://www.w3.org/2000/svg" xmlns:xlink="http://www.w3.org/1999/xlink" xml:space="preserve" xmlns:serif="http://www.serif.com/" style="fill-rule:evenodd;clip-rule:evenodd;stroke-linejoin:round;stroke-miterlimit:2;"><path id="twitter" d="M20,1.894c-0.744,0.321 -1.536,0.535 -2.363,0.637c0.851,-0.499 1.499,-1.284 1.804,-2.231c-0.792,0.466 -1.667,0.794 -2.6,0.977c-0.752,-0.788 -1.825,-1.277 -2.995,-1.277c-2.27,0 -4.097,1.814 -4.097,4.038c0,0.32 0.027,0.628 0.095,0.921c-3.409,-0.164 -6.425,-1.772 -8.452,-4.223c-0.353,0.605 -0.561,1.296 -0.561,2.041c0,1.398 0.731,2.637 1.821,3.355c-0.658,-0.013 -1.304,-0.201 -1.852,-0.498l0,0.045c0,1.962 1.421,3.591 3.285,3.966c-0.334,0.091 -0.698,0.133 -1.075,0.133c-0.262,0 -0.527,-0.014 -0.776,-0.069c0.531,1.599 2.038,2.774 3.831,2.813c-1.395,1.074 -3.166,1.722 -5.084,1.722c-0.336,0 -0.658,-0.015 -0.981,-0.056c1.816,1.154 3.969,1.812 6.29,1.812c7.545,0 11.67,-6.154 11.67,-11.488c0,-0.179 -0.006,-0.351 -0.015,-0.522c0.814,-0.568 1.498,-1.279 2.055,-2.096Z" style="fill:#fff;fill-rule:nonzero;"/></svg>