<svg viewBox="0 0 20 16" xmlns="http://www.w3.org/2000/svg" fill-rule="evenodd" clip-rule="evenodd" stroke-linejoin="round" stroke-miterlimit="2"><path d="M20 1.894a8.61 8.61 0 0 1-2.363.637A4.018 4.018 0 0 0 19.441.3a8.235 8.235 0 0 1-2.6.977A4.141 4.141 0 0 0 13.846 0c-2.27 0-4.097 1.814-4.097 4.038 0 .32.027.628.095.921A11.668 11.668 0 0 1 1.392.736a4.026 4.026 0 0 0-.561 2.041c0 1.398.731 2.637 1.821 3.355A4.105 4.105 0 0 1 .8 5.634v.045c0 1.962 1.421 3.591 3.285 3.966a4.107 4.107 0 0 1-1.075.133c-.262 0-.527-.014-.776-.069a4.132 4.132 0 0 0 3.831 2.813 8.323 8.323 0 0 1-5.084 1.722A7.73 7.73 0 0 1 0 14.188 11.668 11.668 0 0 0 6.29 16c7.545 0 11.67-6.154 11.67-11.488 0-.179-.006-.351-.015-.522A8.093 8.093 0 0 0 20 1.894z" fill="#fff" fill-rule="nonzero"/></svg>